<svg width="16" height="17" viewBox="0 0 16 17" fill="none" xmlns="http://www.w3.org/2000/svg">
<path d="M9.3507 5.85681L3.7507 11.3568C3.65718 11.4488 3.53125 11.5004 3.40007 11.5004C3.2689 11.5004 3.14297 11.4488 3.04945 11.3568L0.64945 8.99993C0.602625 8.95389 0.565328 8.89907 0.539689 8.83861C0.514049 8.77815 0.500569 8.71324 0.500018 8.64757C0.499466 8.5819 0.511855 8.51677 0.536475 8.45589C0.561096 8.395 0.597467 8.33957 0.643512 8.29275C0.689557 8.24592 0.744374 8.20862 0.804832 8.18298C0.865291 8.15734 0.930208 8.14386 0.995876 8.14331C1.06154 8.14276 1.12668 8.15515 1.18756 8.17977C1.24844 8.20439 1.30388 8.24076 1.3507 8.28681L3.40007 10.2993L8.65007 5.14306C8.74472 5.05007 8.87244 4.99848 9.00512 4.99965C9.07082 5.00024 9.13576 5.01375 9.19623 5.03943C9.25671 5.0651 9.31153 5.10244 9.35757 5.14931C9.40362 5.19617 9.43998 5.25165 9.46459 5.31257C9.48919 5.37349 9.50156 5.43865 9.50098 5.50435C9.5004 5.57005 9.48688 5.63499 9.4612 5.69546C9.43553 5.75594 9.39819 5.81076 9.35132 5.85681H9.3507ZM15.3569 5.14931C15.3109 5.10241 15.2561 5.06504 15.1956 5.03934C15.1352 5.01364 15.0702 5.00011 15.0045 4.99953C14.9388 4.99895 14.8736 5.01133 14.8127 5.03596C14.7518 5.06058 14.6963 5.09698 14.6494 5.14306L9.39945 10.2993L8.22257 9.14306C8.12793 9.05015 8.00025 8.99864 7.86762 8.99988C7.735 9.00111 7.6083 9.05497 7.51539 9.14962C7.42248 9.24427 7.37097 9.37195 7.37221 9.50457C7.37344 9.6372 7.4273 9.7639 7.52195 9.85681L9.04882 11.3568C9.14234 11.4488 9.26827 11.5004 9.39945 11.5004C9.53063 11.5004 9.65655 11.4488 9.75007 11.3568L15.3501 5.85681C15.397 5.81082 15.4344 5.75604 15.4602 5.69558C15.4859 5.63513 15.4995 5.57019 15.5002 5.50448C15.5008 5.43877 15.4885 5.37358 15.4639 5.31264C15.4393 5.2517 15.403 5.19619 15.3569 5.14931Z" fill="#E61E4D"/>
</svg>
